<?xml version="1.0" encoding="iso-8859-1"?>
<!-- Generator: Adobe Illustrator 19.0.0, SVG Export Plug-In . SVG Version: 6.00 Build 0)  -->
<svg version="1.1" id="Layer_1" xmlns="http://www.w3.org/2000/svg" xmlns:xlink="http://www.w3.org/1999/xlink" x="0px" y="0px"
	 viewBox="0 0 512 512" style="enable-background:new 0 0 512 512;" xml:space="preserve">
<g>
	<g>
		<path d="M255.946,83.759c-33.069,0-59.972,26.903-59.972,59.971c0,33.069,26.903,59.972,59.972,59.972
			c33.068,0,59.971-26.903,59.971-59.972C315.917,110.662,289.014,83.759,255.946,83.759z M255.946,183.304
			c-21.821,0-39.574-17.753-39.574-39.574c0-21.821,17.753-39.573,39.574-39.573c21.821,0,39.573,17.753,39.573,39.573
			C295.519,165.551,277.767,183.304,255.946,183.304z"/>
	</g>
</g>
<g>
	<g>
		<path d="M112.363,144.796c-27.175,0-49.283,22.108-49.283,49.283c0,27.175,22.108,49.283,49.283,49.283
			c27.175,0,49.283-22.108,49.283-49.283S139.537,144.796,112.363,144.796z M112.363,222.963c-15.927,0-28.884-12.957-28.884-28.884
			c0-15.927,12.957-28.884,28.884-28.884c15.927,0,28.884,12.958,28.884,28.884C141.247,210.005,128.29,222.963,112.363,222.963z"/>
	</g>
</g>
<g>
	<g>
		<path d="M399.674,144.796c-27.174,0-49.283,22.108-49.283,49.283c0,27.175,22.109,49.283,49.283,49.283
			c27.175,0,49.282-22.108,49.282-49.283S426.848,144.796,399.674,144.796z M399.674,222.963c-15.927,0-28.884-12.957-28.884-28.884
			c0-15.927,12.957-28.884,28.884-28.884c15.926,0,28.883,12.958,28.883,28.884C428.557,210.005,415.6,222.963,399.674,222.963z"/>
	</g>
</g>
<g>
	<g>
		<path d="M501.801,407.843h-28.677V332.75c0-40.5-32.95-73.45-73.451-73.45c-22.522,0-42.698,10.198-56.181,26.209
			c-10.521-38.473-45.781-66.836-87.546-66.836c-41.729,0-76.956,28.381-87.451,66.874c-13.464-16.033-33.626-26.247-56.132-26.247
			c-40.5,0-73.451,32.95-73.451,73.45v75.093H10.199C4.566,407.843,0,412.409,0,418.042c0,5.633,4.566,10.199,10.199,10.199h491.602
			c5.632,0,10.199-4.566,10.199-10.199C512,412.409,507.433,407.843,501.801,407.843z M165.306,407.843H59.31V332.75
			c0-29.252,23.799-53.051,53.052-53.051c29.193,0,52.943,23.799,52.943,53.051V407.843z M326.225,407.843H185.704v-98.421
			c0-38.792,31.51-70.351,70.242-70.351c38.792,0,70.351,31.559,70.351,70.351L326.225,407.843z M452.725,407.842h-106.03v-77.865
			c1.447-27.969,24.657-50.279,52.979-50.279c29.252,0,53.051,23.799,53.051,53.051V407.842z"/>
	</g>
</g>
<g>
	<g>
		<path d="M207.08,329.54c-5.633,0-10.199,4.566-10.199,10.199v48.939c0,5.633,4.566,10.199,10.199,10.199
			s10.199-4.566,10.199-10.199V339.74C217.279,334.108,212.713,329.54,207.08,329.54z"/>
	</g>
</g>
<g>
	<g>
		<path d="M207.08,296.915c-5.633,0-10.199,4.566-10.199,10.199v2.175c0,5.633,4.566,10.199,10.199,10.199
			s10.199-4.566,10.199-10.199v-2.175C217.279,301.481,212.713,296.915,207.08,296.915z"/>
	</g>
</g>
<g>
</g>
<g>
</g>
<g>
</g>
<g>
</g>
<g>
</g>
<g>
</g>
<g>
</g>
<g>
</g>
<g>
</g>
<g>
</g>
<g>
</g>
<g>
</g>
<g>
</g>
<g>
</g>
<g>
</g>
</svg>
